HIERARCHY
ROOT mixamorig:Hips
{
	OFFSET 0.000000 102.625267 -0.521241
	CHANNELS 6 Xposition Yposition Zposition Xrotation Yrotation Zrotation
	JOINT mixamorig:Spine
	{
		OFFSET 0.000000 5.645721 -0.031929
		CHANNELS 3 Xrotation Yrotation Zrotation
		JOINT mixamorig:Spine1
		{
			OFFSET 0.000000 6.586685 -0.037251
			CHANNELS 3 Xrotation Yrotation Zrotation
			JOINT mixamorig:Spine2
			{
				OFFSET 0.000000 7.527618 -0.042572
				CHANNELS 3 Xrotation Yrotation Zrotation
				JOINT mixamorig:Neck
				{
					OFFSET 0.000000 8.468590 -0.047894
					CHANNELS 3 Xrotation Yrotation Zrotation
					JOINT mixamorig:Head
					{
						OFFSET 0.000000 5.998901 -1.158958
						CHANNELS 3 Xrotation Yrotation Zrotation
						JOINT mixamorig:HeadTop_End
						{
							OFFSET 0.000000 21.748810 -4.201760
							CHANNELS 3 Xrotation Yrotation Zrotation
							End Site
							{
								OFFSET 0.000000 22.150970 0.000000
							}
						}
					}
				}
				JOINT mixamorig:LeftShoulder
				{
					OFFSET 3.414614 7.343132 -0.058928
					CHANNELS 3 Xrotation Yrotation Zrotation
					JOINT mixamorig:LeftArm
					{
						OFFSET 6.829548 -2.246910 -0.022071
						CHANNELS 3 Xrotation Yrotation Zrotation
						JOINT mixamorig:LeftForeArm
						{
							OFFSET 24.198503 -0.424179 0.257802
							CHANNELS 3 Xrotation Yrotation Zrotation
							JOINT mixamorig:LeftHand
							{
								OFFSET 21.584717 -0.002335 0.669575
								CHANNELS 3 Xrotation Yrotation Zrotation
								JOINT mixamorig:LeftHandThumb1
								{
									OFFSET 2.193897 -1.259628 1.956942
									CHANNELS 3 Xrotation Yrotation Zrotation
									JOINT mixamorig:LeftHandThumb2
									{
										OFFSET 1.755203 -1.007660 1.565605
										CHANNELS 3 Xrotation Yrotation Zrotation
										JOINT mixamorig:LeftHandThumb3
										{
											OFFSET 2.535126 -0.998764 1.490660
											CHANNELS 3 Xrotation Yrotation Zrotation
											JOINT mixamorig:LeftHandThumb4
											{
												OFFSET 2.398251 -0.721657 1.023775
												CHANNELS 3 Xrotation Yrotation Zrotation
												End Site
												{
													OFFSET 2.205696 -0.773872 1.362551
												}
											}
										}
									}
								}
								JOINT mixamorig:LeftHandIndex1
								{
									OFFSET 7.166248 -0.069405 2.369028
									CHANNELS 3 Xrotation Yrotation Zrotation
									JOINT mixamorig:LeftHandIndex2
									{
										OFFSET 2.989986 -0.015724 0.245918
										CHANNELS 3 Xrotation Yrotation Zrotation
										JOINT mixamorig:LeftHandIndex3
										{
											OFFSET 2.739197 -0.058952 0.219132
											CHANNELS 3 Xrotation Yrotation Zrotation
											JOINT mixamorig:LeftHandIndex4
											{
												OFFSET 2.326500 -0.032570 0.188458
												CHANNELS 3 Xrotation Yrotation Zrotation
												End Site
												{
													OFFSET 2.326485 -0.032578 0.188548
												}
											}
										}
									}
								}
								JOINT mixamorig:LeftHandMiddle1
								{
									OFFSET 7.394897 0.286369 0.654762
									CHANNELS 3 Xrotation Yrotation Zrotation
									JOINT mixamorig:LeftHandMiddle2
									{
										OFFSET 3.376106 0.152466 -0.003692
										CHANNELS 3 Xrotation Yrotation Zrotation
										JOINT mixamorig:LeftHandMiddle3
										{
											OFFSET 3.185104 -0.185410 -0.047914
											CHANNELS 3 Xrotation Yrotation Zrotation
											JOINT mixamorig:LeftHandMiddle4
											{
												OFFSET 2.742905 0.223846 0.010354
												CHANNELS 3 Xrotation Yrotation Zrotation
												End Site
												{
													OFFSET 2.742889 0.224251 0.006757
												}
											}
										}
									}
								}
								JOINT mixamorig:LeftHandRing1
								{
									OFFSET 7.508747 0.282753 -1.072900
									CHANNELS 3 Xrotation Yrotation Zrotation
									JOINT mixamorig:LeftHandRing2
									{
										OFFSET 2.821857 0.317802 -0.177266
										CHANNELS 3 Xrotation Yrotation Zrotation
										JOINT mixamorig:LeftHandRing3
										{
											OFFSET 2.672325 0.088310 -0.196165
											CHANNELS 3 Xrotation Yrotation Zrotation
											JOINT mixamorig:LeftHandRing4
											{
												OFFSET 2.272652 -0.053627 -0.183955
												CHANNELS 3 Xrotation Yrotation Zrotation
												End Site
												{
													OFFSET 2.272919 -0.054016 -0.180438
												}
											}
										}
									}
								}
								JOINT mixamorig:LeftHandPinky1
								{
									OFFSET 7.285820 0.522377 -2.660948
									CHANNELS 3 Xrotation Yrotation Zrotation
									JOINT mixamorig:LeftHandPinky2
									{
										OFFSET 2.466278 0.082008 -0.249570
										CHANNELS 3 Xrotation Yrotation Zrotation
										JOINT mixamorig:LeftHandPinky3
										{
											OFFSET 1.940475 0.021858 -0.202004
											CHANNELS 3 Xrotation Yrotation Zrotation
											JOINT mixamorig:LeftHandPinky4
											{
												OFFSET 1.645287 0.153595 -0.153405
												CHANNELS 3 Xrotation Yrotation Zrotation
												End Site
												{
													OFFSET 1.645088 0.153801 -0.155289
												}
											}
										}
									}
								}
							}
						}
					}
				}
				JOINT mixamorig:RightShoulder
				{
					OFFSET -3.414604 7.343132 -0.036860
					CHANNELS 3 Xrotation Yrotation Zrotation
					JOINT mixamorig:RightArm
					{
						OFFSET -6.829551 -2.246986 0.022068
						CHANNELS 3 Xrotation Yrotation Zrotation
						JOINT mixamorig:RightForeArm
						{
							OFFSET -24.198494 -0.424141 0.158696
							CHANNELS 3 Xrotation Yrotation Zrotation
							JOINT mixamorig:RightHand
							{
								OFFSET -21.584698 -0.002243 0.686977
								CHANNELS 3 Xrotation Yrotation Zrotation
								JOINT mixamorig:RightHandThumb1
								{
									OFFSET -2.242882 -1.296806 1.978855
									CHANNELS 3 Xrotation Yrotation Zrotation
									JOINT mixamorig:RightHandThumb2
									{
										OFFSET -1.794239 -1.037361 1.583064
										CHANNELS 3 Xrotation Yrotation Zrotation
										JOINT mixamorig:RightHandThumb3
										{
											OFFSET -2.504150 -0.962166 1.471556
											CHANNELS 3 Xrotation Yrotation Zrotation
											JOINT mixamorig:RightHandThumb4
											{
												OFFSET -2.346046 -0.743172 0.992235
												CHANNELS 3 Xrotation Yrotation Zrotation
												End Site
												{
													OFFSET -2.157112 -0.792709 1.326359
												}
											}
										}
									}
								}
								JOINT mixamorig:RightHandIndex1
								{
									OFFSET -7.174488 -0.001839 2.366265
									CHANNELS 3 Xrotation Yrotation Zrotation
									JOINT mixamorig:RightHandIndex2
									{
										OFFSET -2.935219 -0.016853 0.287245
										CHANNELS 3 Xrotation Yrotation Zrotation
										JOINT mixamorig:RightHandIndex3
										{
											OFFSET -2.786827 -0.129890 0.255971
											CHANNELS 3 Xrotation Yrotation Zrotation
											JOINT mixamorig:RightHandIndex4
											{
												OFFSET -2.343559 0.168816 0.256164
												CHANNELS 3 Xrotation Yrotation Zrotation
												End Site
												{
													OFFSET -2.344208 0.169510 0.249690
												}
											}
										}
									}
								}
								JOINT mixamorig:RightHandMiddle1
								{
									OFFSET -7.274693 0.327965 0.656181
									CHANNELS 3 Xrotation Yrotation Zrotation
									JOINT mixamorig:RightHandMiddle2
									{
										OFFSET -3.309677 0.091591 0.032863
										CHANNELS 3 Xrotation Yrotation Zrotation
										JOINT mixamorig:RightHandMiddle3
										{
											OFFSET -3.186844 -0.122513 0.000971
											CHANNELS 3 Xrotation Yrotation Zrotation
											JOINT mixamorig:RightHandMiddle4
											{
												OFFSET -2.671951 -0.322540 -0.031001
												CHANNELS 3 Xrotation Yrotation Zrotation
												End Site
												{
													OFFSET -2.671928 -0.323486 -0.021820
												}
											}
										}
									}
								}
								JOINT mixamorig:RightHandRing1
								{
									OFFSET -7.453640 0.430428 -1.170334
									CHANNELS 3 Xrotation Yrotation Zrotation
									JOINT mixamorig:RightHandRing2
									{
										OFFSET -2.808174 0.165817 -0.117934
										CHANNELS 3 Xrotation Yrotation Zrotation
										JOINT mixamorig:RightHandRing3
										{
											OFFSET -2.730080 0.127754 -0.119542
											CHANNELS 3 Xrotation Yrotation Zrotation
											JOINT mixamorig:RightHandRing4
											{
												OFFSET -2.349426 0.078133 -0.107466
												CHANNELS 3 Xrotation Yrotation Zrotation
												End Site
												{
													OFFSET -2.349503 0.077988 -0.106043
												}
											}
										}
									}
								}
								JOINT mixamorig:RightHandPinky1
								{
									OFFSET -7.364456 0.463486 -2.604800
									CHANNELS 3 Xrotation Yrotation Zrotation
									JOINT mixamorig:RightHandPinky2
									{
										OFFSET -2.430134 0.174614 -0.251330
										CHANNELS 3 Xrotation Yrotation Zrotation
										JOINT mixamorig:RightHandPinky3
										{
											OFFSET -1.953583 0.007492 -0.220999
											CHANNELS 3 Xrotation Yrotation Zrotation
											JOINT mixamorig:RightHandPinky4
											{
												OFFSET -1.582039 0.276558 -0.139972
												CHANNELS 3 Xrotation Yrotation Zrotation
												End Site
												{
													OFFSET -1.581284 0.277252 -0.147002
												}
											}
										}
									}
								}
							}
						}
					}
				}
			}
		}
	}
	JOINT mixamorig:LeftUpLeg
	{
		OFFSET 6.620181 -8.816864 -0.447179
		CHANNELS 3 Xrotation Yrotation Zrotation
		JOINT mixamorig:LeftLeg
		{
			OFFSET 2.748989 -36.076775 0.650871
			CHANNELS 3 Xrotation Yrotation Zrotation
			JOINT mixamorig:LeftFoot
			{
				OFFSET 1.089303 -46.239017 1.019056
				CHANNELS 3 Xrotation Yrotation Zrotation
				JOINT mixamorig:LeftToeBase
				{
					OFFSET -0.371088 -10.380511 12.650617
					CHANNELS 3 Xrotation Yrotation Zrotation
					JOINT mixamorig:LeftToe_End
					{
						OFFSET -0.094684 -0.116785 6.663326
						CHANNELS 3 Xrotation Yrotation Zrotation
						End Site
						{
							OFFSET -0.094684 -0.116785 6.663326
						}
					}
				}
			}
		}
	}
	JOINT mixamorig:RightUpLeg
	{
		OFFSET -6.620174 -8.816818 -0.447182
		CHANNELS 3 Xrotation Yrotation Zrotation
		JOINT mixamorig:RightLeg
		{
			OFFSET -2.748991 -36.076790 0.753614
			CHANNELS 3 Xrotation Yrotation Zrotation
			JOINT mixamorig:RightFoot
			{
				OFFSET -1.089311 -46.239029 0.372114
				CHANNELS 3 Xrotation Yrotation Zrotation
				JOINT mixamorig:RightToeBase
				{
					OFFSET 0.371103 -10.380659 13.284531
					CHANNELS 3 Xrotation Yrotation Zrotation
					JOINT mixamorig:RightToe_End
					{
						OFFSET 0.094689 -0.116865 6.675873
						CHANNELS 3 Xrotation Yrotation Zrotation
						End Site
						{
							OFFSET 0.094687 -0.116865 6.675871
						}
					}
				}
			}
		}
	}
}
MOTION
Frames: 4
Frame Time: 0.016667
-68.733215 94.184570 47.342339 49.741269 75.997787 -57.032991 39.896388 -5.588223 0.287386 9.933907 -0.523104 0.642495 9.936913 -0.489851 0.604135 -14.741985 -9.038788 8.252757 -23.532986 -35.751502 14.703259 0.000001 0.000001 -0.000001 -2.967488 29.559959 7.331436 -70.156063 -28.970811 -81.058301 5.910660 -99.486753 5.999172 0.620327 -10.233775 3.358184 2.997262 9.119724 4.141887 2.226327 2.580470 -3.663033 -1.849514 2.127189 -0.233302 0.000002 -0.000003 -0.000007 -0.264999 -0.576838 3.412939 0.283875 0.795891 -3.102166 0.675861 1.519070 -6.912853 -0.000002 -0.000000 0.000003 0.204351 -4.310801 -3.897227 0.008209 1.012044 -2.063951 0.411182 3.420205 -18.495428 0.000004 0.000000 0.000001 -0.096516 -6.530083 -13.368232 -0.565971 2.254720 -8.329464 -0.636300 3.025174 -12.191461 -0.000005 0.000001 -0.000001 0.150267 -3.745157 -12.367161 -1.096201 -0.189300 -16.428960 -1.528503 5.364342 -23.913804 -0.000003 0.000000 -0.000001 0.045980 -4.795123 1.591148 866.675109 184.074472 -853.399243 1.793805 118.775514 -2.060937 30.992547 -27.779752 42.866667 -0.399550 -25.634895 -8.770869 3.372188 -8.817864 4.054269 -2.750662 0.633244 -0.158827 -0.000003 0.000000 0.000001 0.685677 -2.410159 6.382758 1.900088 -3.141331 14.772149 3.573129 -4.395329 25.851668 -0.000000 0.000002 -0.000002 0.562615 1.470471 13.698182 0.585535 -3.532659 15.643739 0.680884 -3.536231 15.445793 -0.000000 -0.000001 0.000002 0.116699 2.928298 22.288485 -0.292116 -4.662283 21.537403 -0.297357 -4.466012 20.596253 -0.000003 0.000000 0.000001 -1.138842 4.941298 28.517655 -1.553055 -4.795889 20.491030 -1.942626 -6.692586 31.828822 -0.000001 0.000000 -0.000002 -42.852600 -0.143490 -9.029743 53.323960 -7.226699 7.197091 -14.233659 -16.543201 11.545718 -0.000071 0.000003 0.000003 0.000000 -0.000001 -0.000000 -105.253775 4.759628 7.158307 121.916527 6.417816 4.798557 1.324138 4.635876 0.656513 -9.442883 0.000005 0.000013 0.000002 -0.000000 0.000000 
-69.011429 93.200562 48.347141 66.570302 77.831986 -72.541308 40.315028 -6.024199 1.544735 9.806524 -0.564174 0.281102 9.805444 -0.576511 0.246995 -14.041730 -9.510378 9.898266 -25.027287 -36.884562 13.683304 0.000001 0.000001 0.000000 -3.076200 27.793127 9.322576 -69.853861 -27.695218 -82.105335 4.510724 -102.341697 4.625003 1.629432 -9.432241 2.962443 2.936520 9.817548 4.264257 2.219970 2.932539 -3.620425 -1.864882 2.301877 -0.206434 0.000002 0.000005 0.000000 -0.232510 -0.468095 2.952373 0.264347 0.750202 -2.900583 0.671877 1.511213 -6.877022 0.000002 -0.000004 -0.000002 0.206066 -4.230154 -4.252276 0.007630 0.991164 -1.971901 0.404446 3.394560 -18.378275 0.000002 0.000001 0.000002 -0.104076 -6.478790 -13.589449 -0.568142 2.265028 -8.374404 -0.630160 2.975384 -11.975141 -0.000003 0.000001 0.000001 0.151887 -3.719324 -12.480263 -1.102101 -0.151435 -16.582912 -1.524365 5.289993 -23.618917 -0.000000 -0.000001 0.000002 0.228626 -3.804687 2.770003 859.491225 192.061013 -858.653680 1.226654 128.706896 -1.590595 37.894487 -24.919762 55.364164 -0.592987 -26.752840 -9.046187 3.363169 -9.386411 3.992105 -2.774485 0.353484 -0.202547 0.000002 -0.000001 0.000001 1.011088 -2.927603 8.951674 1.716017 -2.916473 13.554832 3.558035 -4.382292 25.766470 -0.000000 0.000000 0.000002 0.666855 1.099309 15.501536 0.547877 -3.414505 15.061025 0.691145 -3.565374 15.591111 -0.000001 0.000000 0.000001 0.142945 2.745643 23.140292 -0.286388 -4.707046 21.746661 -0.286343 -4.559673 21.033790 0.000001 -0.000000 -0.000002 -1.139343 4.919601 28.609164 -1.580727 -4.990743 21.325273 -1.939990 -6.852385 32.495513 0.000003 0.000002 -0.000001 -44.788798 -0.207008 -11.473261 56.178548 -7.092756 7.954490 -15.139070 -17.995479 11.208998 -0.000067 -0.000009 0.000002 0.000000 -0.000000 -0.000000 -109.534009 5.943833 5.768431 125.262760 6.432702 4.895186 2.123238 4.932010 0.789168 -9.042577 -0.000001 0.000011 0.000001 -0.000001 0.000000 
-69.098129 92.283287 49.301846 85.856817 78.612240 -90.355022 40.317804 -6.401816 2.811467 9.678327 -0.602047 -0.105221 9.672587 -0.662988 -0.134960 -13.020305 -9.922028 11.342445 -26.331093 -38.327214 12.738505 0.000002 -0.000000 0.000001 -2.892913 25.116059 10.887168 -68.273867 -27.532954 -82.713768 4.171103 -103.309685 4.294180 2.541053 -8.312068 2.734892 2.843753 10.848060 4.446926 2.210110 3.452608 -3.557373 -1.887775 2.559938 -0.166687 -0.000000 0.000000 -0.000003 -0.179860 -0.298241 2.230579 0.250093 0.716539 -2.752311 0.664479 1.496577 -6.810312 0.000000 -0.000003 -0.000002 0.209305 -4.117104 -4.749967 0.007362 0.980219 -1.923666 0.399055 3.373953 -18.284051 0.000002 -0.000000 -0.000001 -0.111224 -6.429021 -13.803821 -0.571789 2.282445 -8.450675 -0.626482 2.946389 -11.849068 -0.000003 0.000002 0.000001 0.151677 -3.722357 -12.467044 -1.108693 -0.108220 -16.758433 -1.522090 5.251807 -23.467386 -0.000000 0.000001 -0.000001 0.392738 -2.832134 3.941966 852.931839 198.096004 -864.246949 0.943958 136.087722 -1.383668 42.974925 -21.029253 64.835031 -0.732094 -27.529141 -9.241607 3.356543 -9.781660 3.948775 -2.791237 0.158819 -0.233037 -0.000002 -0.000002 0.000003 1.783669 -3.982319 14.460506 1.542458 -2.695091 12.377197 3.523185 -4.352027 25.569146 -0.000001 -0.000000 0.000001 0.922498 0.334053 19.277934 0.507362 -3.282455 14.412222 0.697202 -3.582550 15.676800 0.000000 0.000001 0.000000 0.200901 2.395898 24.776713 -0.286137 -4.708898 21.755291 -0.274301 -4.655411 21.481616 -0.000002 0.000002 -0.000000 -1.138949 4.936535 28.537780 -1.596820 -5.114471 21.854247 -1.934921 -7.027863 33.228027 0.000000 -0.000001 0.000001 -46.134298 0.092217 -13.928393 58.647371 -6.945270 8.625746 -16.022244 -19.286605 10.968159 -0.000078 -0.000007 0.000003 -0.000000 0.000002 0.000000 -112.206177 7.342210 4.382155 127.611402 6.496910 4.928163 2.568223 4.630139 0.573238 -8.583578 -0.000013 0.000015 -0.000000 0.000001 -0.000000 
-69.029373 91.479004 50.139381 103.622186 78.406644 -106.618877 40.013058 -6.692175 3.949808 9.552023 -0.634494 -0.461128 9.541817 -0.740466 -0.487087 -11.815292 -10.234728 12.461181 -27.307738 -39.886587 12.050652 0.000002 0.000000 0.000000 -2.484142 21.986772 11.872826 -65.760645 -28.550327 -82.986143 4.651954 -101.978939 4.762998 3.114081 -7.069624 2.573580 2.732895 12.028895 4.659218 2.198087 4.048683 -3.484949 -1.914220 2.855715 -0.120979 0.000003 -0.000001 -0.000000 -0.111692 -0.088828 1.336553 0.245333 0.705272 -2.702754 0.654322 1.476441 -6.718514 -0.000004 -0.000002 -0.000004 0.214304 -3.986072 -5.327081 0.007438 0.983522 -1.938154 0.394692 3.357171 -18.207432 0.000001 -0.000000 0.000001 -0.117004 -6.387877 -13.981081 -0.576220 2.303822 -8.544081 -0.624871 2.933691 -11.793839 -0.000002 0.000000 0.000001 0.149670 -3.755064 -12.323714 -1.114482 -0.069691 -16.914904 -1.521495 5.242078 -23.428754 0.000000 -0.000002 -0.000000 0.517372 -2.041891 4.954007 848.145079 201.789743 -868.922459 0.812520 140.295624 -1.297285 46.039816 -17.051654 70.705572 -0.807955 -27.943214 -9.347326 3.352838 -9.994011 3.925452 -2.800396 0.052789 -0.249657 -0.000003 -0.000001 0.000001 3.158607 -5.442984 22.951020 1.431359 -2.548336 11.607060 3.461698 -4.298106 25.219652 0.000002 0.000004 -0.000001 1.404378 -0.789056 25.006282 0.480824 -3.192831 13.973218 0.694777 -3.575716 15.642706 0.000001 -0.000000 -0.000001 0.301677 1.896384 27.128900 -0.287058 -4.701906 21.722631 -0.263728 -4.735011 21.854261 0.000001 0.000000 -0.000000 -1.136843 5.016278 28.201387 -1.605127 -5.182258 22.143875 -1.928067 -7.193734 33.921066 0.000003 -0.000001 0.000002 -46.892134 0.614741 -16.169310 60.682310 -6.849452 9.133121 -16.839671 -20.249443 10.847967 -0.000396 0.000013 0.000007 -0.000000 -0.000004 -0.000000 -113.102393 8.781896 3.006829 128.791645 6.602853 4.931079 2.555137 3.928626 -0.005423 -8.152295 -0.000002 0.000026 0.000000 0.000000 0.000000 
